<mxfile host="65bd71144e">
    <diagram id="7pA-wQYnp06PilA93pyz" name="Page-1">
        <mxGraphModel dx="6274" dy="3866" grid="1" gridSize="10" guides="1" tooltips="1" connect="1" arrows="1" fold="1" page="1" pageScale="1" pageWidth="827" pageHeight="1169" math="0" shadow="0">
            <root>
                <mxCell id="0"/>
                <mxCell id="1" parent="0"/>
                <mxCell id="13" value="" style="rounded=1;whiteSpace=wrap;html=1;arcSize=46;fillColor=#d5e8d4;gradientColor=#97d077;strokeColor=#82b366;" parent="1" vertex="1">
                    <mxGeometry x="-1580" y="-220" width="3610" height="2540" as="geometry"/>
                </mxCell>
                <mxCell id="57" style="edgeStyle=elbowEdgeStyle;rounded=0;html=1;exitX=1;exitY=0.376;exitDx=0;exitDy=0;entryX=0;entryY=0.5;entryDx=0;entryDy=0;entryPerimeter=0;strokeWidth=5;fontSize=64;fontColor=#000000;fillColor=#0050ef;strokeColor=#001DBC;exitPerimeter=0;" parent="1" source="51" target="41" edge="1">
                    <mxGeometry relative="1" as="geometry">
                        <Array as="points">
                            <mxPoint x="840" y="880"/>
                        </Array>
                    </mxGeometry>
                </mxCell>
                <mxCell id="51" value="" style="shape=ext;double=1;rounded=0;whiteSpace=wrap;html=1;strokeWidth=1;fontSize=64;fontColor=#3333FF;fillColor=none;strokeColor=#333333;" parent="1" vertex="1">
                    <mxGeometry x="-760" y="60" width="1600" height="2120" as="geometry"/>
                </mxCell>
                <mxCell id="48" style="edgeStyle=elbowEdgeStyle;rounded=0;html=1;strokeWidth=5;fontSize=64;fontColor=#3333FF;fillColor=#0050ef;strokeColor=#001DBC;" parent="1" source="14" target="16" edge="1">
                    <mxGeometry relative="1" as="geometry"/>
                </mxCell>
                <mxCell id="14" value="&lt;b&gt;&lt;font color=&quot;#1a1a1a&quot; face=&quot;Fira Code&quot; style=&quot;font-size: 36px;&quot;&gt;Github API Provider&lt;/font&gt;&lt;/b&gt;" style="ellipse;whiteSpace=wrap;html=1;fillColor=#ffcd28;strokeColor=#d79b00;gradientColor=#ffa500;" parent="1" vertex="1">
                    <mxGeometry x="-180" y="100" width="380" height="370" as="geometry"/>
                </mxCell>
                <mxCell id="65" style="edgeStyle=orthogonalEdgeStyle;html=1;exitX=0.465;exitY=1.003;exitDx=0;exitDy=0;entryX=0;entryY=0.5;entryDx=0;entryDy=0;entryPerimeter=0;strokeColor=#001DBC;strokeWidth=5;fontSize=48;fontColor=#FFFFFF;exitPerimeter=0;fillColor=#0050ef;" edge="1" parent="1" source="15" target="59">
                    <mxGeometry relative="1" as="geometry">
                        <Array as="points">
                            <mxPoint x="-530" y="1325"/>
                        </Array>
                    </mxGeometry>
                </mxCell>
                <mxCell id="15" value="&lt;b&gt;&lt;font color=&quot;#333333&quot; face=&quot;Fira Code&quot;&gt;Widget&lt;/font&gt;&lt;/b&gt;" style="whiteSpace=wrap;html=1;aspect=fixed;fontSize=36;fillColor=#e6d0de;strokeColor=#996185;gradientColor=#d5739d;" parent="1" vertex="1">
                    <mxGeometry x="-690" y="480" width="340" height="340" as="geometry"/>
                </mxCell>
                <mxCell id="64" style="edgeStyle=none;html=1;exitX=0.5;exitY=1;exitDx=0;exitDy=0;entryX=0.5;entryY=0;entryDx=0;entryDy=0;entryPerimeter=0;strokeColor=#001DBC;strokeWidth=5;fontSize=48;fontColor=#FFFFFF;fillColor=#0050ef;" edge="1" parent="1" source="16" target="59">
                    <mxGeometry relative="1" as="geometry"/>
                </mxCell>
                <mxCell id="16" value="&lt;font color=&quot;#333333&quot; face=&quot;Fira Code&quot;&gt;Widget&lt;/font&gt;" style="whiteSpace=wrap;html=1;aspect=fixed;fontSize=36;fillColor=#e6d0de;strokeColor=#996185;fontStyle=1;gradientColor=#d5739d;" parent="1" vertex="1">
                    <mxGeometry x="-170" y="650" width="340" height="340" as="geometry"/>
                </mxCell>
                <mxCell id="17" value="&lt;b&gt;&lt;font color=&quot;#333333&quot; face=&quot;Fira Code&quot;&gt;Widget&lt;/font&gt;&lt;/b&gt;" style="whiteSpace=wrap;html=1;aspect=fixed;fontSize=36;fillColor=#e6d0de;strokeColor=#996185;gradientColor=#d5739d;" parent="1" vertex="1">
                    <mxGeometry x="360" y="470" width="340" height="340" as="geometry"/>
                </mxCell>
                <mxCell id="21" value="" style="edgeStyle=elbowEdgeStyle;elbow=horizontal;endArrow=classic;html=1;curved=0;rounded=0;endSize=8;startSize=8;fontSize=36;exitX=1;exitY=0.5;exitDx=0;exitDy=0;strokeWidth=5;fillColor=#0050ef;strokeColor=#001DBC;" parent="1" source="15" target="14" edge="1">
                    <mxGeometry width="50" height="50" relative="1" as="geometry">
                        <mxPoint x="-270" y="540" as="sourcePoint"/>
                        <mxPoint x="-220" y="490" as="targetPoint"/>
                    </mxGeometry>
                </mxCell>
                <mxCell id="26" value="" style="edgeStyle=elbowEdgeStyle;elbow=horizontal;endArrow=classic;html=1;curved=0;rounded=0;endSize=8;startSize=8;fontSize=36;strokeWidth=5;fillColor=#0050ef;strokeColor=#001DBC;" parent="1" source="17" target="14" edge="1">
                    <mxGeometry width="50" height="50" relative="1" as="geometry">
                        <mxPoint x="210" y="615" as="sourcePoint"/>
                        <mxPoint x="370" y="250" as="targetPoint"/>
                    </mxGeometry>
                </mxCell>
                <mxCell id="30" value="&lt;font face=&quot;Fira Code&quot;&gt;&lt;b style=&quot;&quot;&gt;Widget Export&lt;/b&gt;&lt;/font&gt;" style="shape=ext;double=1;rounded=1;whiteSpace=wrap;html=1;fontSize=36;fillColor=#a20025;fontColor=#ffffff;strokeColor=#6F0000;" parent="1" vertex="1">
                    <mxGeometry x="-325" y="1680" width="650" height="340" as="geometry"/>
                </mxCell>
                <mxCell id="41" value="&lt;h1&gt;&lt;b&gt;&lt;font color=&quot;#000000&quot; face=&quot;Fira Code&quot; style=&quot;font-size: 64px;&quot;&gt;Component Library&lt;/font&gt;&lt;/b&gt;&lt;/h1&gt;" style="html=1;whiteSpace=wrap;shape=isoCube2;backgroundOutline=1;isoAngle=15;fontSize=36;fillColor=#cce5ff;strokeColor=#36393d;" parent="1" vertex="1">
                    <mxGeometry x="1040" y="460" width="711" height="790" as="geometry"/>
                </mxCell>
                <mxCell id="61" style="edgeStyle=none;html=1;exitX=0.5;exitY=1;exitDx=0;exitDy=0;exitPerimeter=0;entryX=0.5;entryY=0;entryDx=0;entryDy=0;fontSize=48;fontColor=#FFFFFF;strokeWidth=5;strokeColor=#001DBC;fillColor=#0050ef;" edge="1" parent="1" source="59" target="30">
                    <mxGeometry relative="1" as="geometry"/>
                </mxCell>
                <mxCell id="66" style="edgeStyle=orthogonalEdgeStyle;html=1;exitX=0.5;exitY=1;exitDx=0;exitDy=0;entryX=1;entryY=0.5;entryDx=0;entryDy=0;strokeColor=#001DBC;strokeWidth=5;fontSize=48;fontColor=#FFFFFF;entryPerimeter=0;fillColor=#0050ef;" edge="1" parent="1" source="17" target="59">
                    <mxGeometry relative="1" as="geometry"/>
                </mxCell>
                <mxCell id="59" value="&lt;font color=&quot;#333333&quot; face=&quot;fira code&quot; style=&quot;font-size: 48px;&quot;&gt;&lt;b&gt;Export Service&lt;/b&gt;&lt;/font&gt;" style="html=1;whiteSpace=wrap;shape=isoCube2;backgroundOutline=1;isoAngle=15;align=center;fillColor=#60a917;fontColor=#ffffff;strokeColor=#2D7600;" vertex="1" parent="1">
                    <mxGeometry x="-190" y="1120" width="380" height="410" as="geometry"/>
                </mxCell>
            </root>
        </mxGraphModel>
    </diagram>
</mxfile>